{"glyphs":{"0":{"ha":886,"x_min":49,"x_max":837,"o":"m 443 -16 l 443 -16 q 233 47 321 -16 q 97 228 144 111 q 49 505 49 345 l 49 505 q 97 782 49 665 q 233 963 144 899 q 443 1027 321 1027 l 443 1027 q 653 963 565 1027 q 789 782 742 899 q 837 505 837 665 l 837 505 q 789 228 837 345 q 653 47 742 111 q 443 -16 565 -16 z m 443 132 l 443 132 q 563 177 513 132 q 640 305 613 222 q 667 505 667 389 l 667 505 q 640 705 667 621 q 563 834 613 789 q 443 879 513 879 l 443 879 q 323 834 374 879 q 245 705 273 789 q 218 505 218 621 l 218 505 q 245 305 218 389 q 323 177 273 222 q 443 132 374 132 z "},"1":{"ha":528,"x_min":28,"x_max":445,"o":"m 279 1010 l 445 1010 l 445 0 l 272 0 l 272 841 l 271 841 l 28 684 l 28 848 l 279 1010 z "},"2":{"ha":814,"x_min":54,"x_max":760,"o":"m 760 0 l 55 0 l 55 136 l 422 457 q 510 541 473 503 q 567 618 547 579 q 587 707 587 658 l 587 707 q 565 798 587 760 q 504 858 543 837 q 409 879 464 879 l 409 879 q 308 854 350 879 q 243 782 266 829 q 220 670 220 735 l 220 670 l 54 670 q 98 857 54 777 q 221 982 141 937 q 409 1027 301 1027 l 409 1027 q 588 988 510 1027 q 710 879 666 949 q 755 715 755 809 l 755 715 q 729 588 755 646 q 654 475 703 530 q 532 356 604 419 l 532 356 l 299 149 l 299 148 l 760 148 l 760 0 z "},"3":{"ha":851,"x_min":54,"x_max":802,"o":"m 429 -16 l 429 -16 q 226 30 310 -16 q 98 153 142 75 q 54 328 54 231 l 54 328 l 228 328 q 252 220 228 265 q 320 152 275 176 q 427 128 364 128 l 427 128 q 530 149 486 128 q 600 206 575 169 q 625 292 625 243 l 625 292 q 598 374 625 339 q 523 428 571 409 q 410 448 475 448 l 410 448 l 323 448 l 323 585 l 410 585 q 511 603 468 585 q 578 652 554 620 q 602 728 602 684 l 602 728 q 579 811 602 776 q 517 866 557 846 q 425 885 478 885 l 425 885 q 329 864 370 885 q 267 803 289 842 q 245 710 245 764 l 245 710 l 75 710 q 118 874 75 802 q 240 986 161 945 q 425 1027 319 1027 l 425 1027 q 603 990 525 1027 q 726 890 682 954 q 771 744 771 827 l 771 744 q 719 604 771 662 q 582 525 667 545 l 582 525 l 582 523 q 700 479 650 513 q 775 395 749 446 q 802 285 802 345 l 802 285 q 754 129 802 197 q 622 22 706 61 q 429 -16 538 -16 z "},"4":{"ha":895,"x_min":38,"x_max":856,"o":"m 856 227 l 38 227 l 38 368 l 496 1010 l 608 1010 l 608 832 l 545 832 l 218 372 l 218 371 l 856 371 l 856 227 z m 716 0 l 546 0 l 546 269 l 546 333 l 546 1010 l 716 1010 l 716 0 z "},"5":{"ha":823,"x_min":45,"x_max":774,"o":"m 412 -14 l 412 -14 q 227 26 308 -14 q 97 138 145 66 q 45 304 50 210 l 45 304 l 216 304 q 246 215 220 254 q 315 152 272 175 q 412 130 358 130 l 412 130 q 512 156 469 130 q 579 228 555 182 q 603 334 603 274 l 603 334 q 579 440 603 394 q 515 512 556 486 q 418 538 473 538 l 418 538 q 295 509 346 538 q 224 425 243 479 l 224 425 l 58 425 l 90 1010 l 715 1010 l 715 862 l 250 862 l 229 593 l 231 593 q 327 659 273 637 q 447 681 382 681 l 447 681 q 575 655 516 681 q 680 583 635 629 q 749 474 724 537 q 774 338 774 412 l 774 338 q 729 155 774 235 q 602 31 684 75 q 412 -14 521 -14 z "},"6":{"ha":842,"x_min":49,"x_max":793,"o":"m 431 -16 l 431 -16 q 270 17 340 -16 q 149 112 199 50 q 74 266 100 175 q 49 474 49 357 l 49 474 q 74 701 49 600 q 148 876 98 803 q 271 988 197 949 q 442 1027 345 1027 l 442 1027 q 612 990 539 1027 q 729 890 685 954 q 783 743 774 826 l 783 743 l 613 743 q 557 845 601 807 q 444 883 513 883 l 444 883 q 316 840 366 883 q 240 721 265 797 q 216 543 216 644 l 216 543 l 217 543 q 279 609 241 582 q 362 651 316 636 q 462 665 409 665 l 462 665 q 632 621 557 665 q 750 501 707 577 q 793 328 793 425 l 793 328 q 747 149 793 227 q 619 27 701 71 q 431 -16 538 -16 z m 431 130 l 431 130 q 528 156 484 130 q 596 227 571 182 q 622 328 622 273 l 622 328 q 597 428 622 384 q 530 498 572 473 q 433 524 487 524 l 433 524 q 358 509 393 524 q 296 468 323 494 q 255 405 270 441 q 240 328 240 369 l 240 328 q 266 227 240 272 q 334 156 291 182 q 431 130 377 130 z "},"7":{"ha":748,"x_min":31,"x_max":716,"o":"m 285 0 l 101 0 l 535 858 l 535 859 l 31 859 l 31 1010 l 716 1010 l 716 858 l 285 0 z "},"8":{"ha":838,"x_min":49,"x_max":789,"o":"m 419 -16 l 419 -16 q 226 20 309 -16 q 96 121 142 56 q 49 271 49 186 l 49 271 q 79 394 49 339 q 162 483 109 448 q 284 526 215 518 l 284 526 l 284 526 q 139 601 194 541 q 83 753 83 662 l 83 753 q 126 895 83 833 q 245 992 170 957 q 419 1027 321 1027 l 419 1027 q 593 992 517 1027 q 711 896 669 957 q 754 753 754 834 l 754 753 q 699 602 754 663 q 554 526 644 541 l 554 526 l 554 526 q 676 483 623 518 q 759 393 729 448 q 789 271 789 338 l 789 271 q 742 121 789 186 q 612 20 695 56 q 419 -16 529 -16 z m 419 121 l 419 121 q 519 141 476 121 q 586 198 562 161 q 610 282 610 234 l 610 282 q 585 369 610 331 q 518 429 561 408 q 419 451 475 451 l 419 451 q 320 429 363 451 q 253 369 277 408 q 228 282 228 331 l 228 282 q 252 198 228 234 q 319 141 276 161 q 419 121 361 121 z m 419 589 l 419 589 q 504 607 468 589 q 561 660 541 626 q 582 739 582 694 l 582 739 q 562 817 582 783 q 505 869 541 850 q 419 888 468 888 l 419 888 q 333 869 370 888 q 276 817 296 850 q 256 739 256 783 l 256 739 q 276 660 256 694 q 333 608 296 627 q 419 589 370 589 z "},"9":{"ha":842,"x_min":49,"x_max":793,"o":"m 398 -16 l 398 -16 q 228 20 302 -16 q 109 121 154 57 q 56 267 64 185 l 56 267 l 225 267 q 282 165 237 203 q 396 127 326 127 l 396 127 q 524 171 474 127 q 600 290 574 214 q 625 467 625 367 l 625 467 l 623 467 q 562 402 599 429 q 479 362 526 376 q 380 349 433 349 l 380 349 q 210 392 285 349 q 92 511 135 435 q 49 684 49 587 l 49 684 q 95 863 49 786 q 223 984 141 941 q 410 1027 304 1027 l 410 1027 q 573 994 502 1027 q 693 898 644 961 q 767 745 742 836 q 793 536 793 654 l 793 536 q 768 309 793 411 q 693 135 743 208 q 570 23 644 62 q 398 -16 496 -16 z m 409 490 l 409 490 q 485 505 450 490 q 546 546 519 519 q 587 608 572 572 q 602 685 602 644 l 602 685 q 576 785 602 741 q 508 855 551 829 q 412 881 465 881 l 412 881 q 315 855 358 881 q 245 785 271 829 q 220 684 220 740 l 220 684 q 245 585 220 629 q 313 515 270 541 q 409 490 355 490 z "},"A":{"ha":963,"x_min":9,"x_max":954,"o":"m 201 0 l 9 0 l 370 1010 l 595 1010 l 954 0 l 757 0 l 580 531 q 524 710 553 615 q 458 933 495 804 l 458 933 l 507 933 q 440 710 470 804 q 383 531 411 615 l 383 531 l 201 0 z m 740 241 l 223 241 l 223 389 l 740 389 l 740 241 z "},"B":{"ha":892,"x_min":84,"x_max":849,"o":"m 492 0 l 84 0 l 84 1010 l 475 1010 q 657 978 582 1010 q 771 886 732 945 q 810 748 810 827 l 810 748 q 789 646 810 690 q 728 572 768 602 q 635 527 689 542 l 635 527 l 635 526 q 744 489 695 519 q 821 408 792 459 q 849 284 849 357 l 849 284 q 809 135 849 199 q 689 36 768 71 q 492 0 610 0 l 492 0 z m 260 442 l 260 146 l 473 146 q 615 183 565 146 q 665 290 665 220 l 665 290 q 643 372 665 338 q 579 424 621 406 q 477 442 537 442 l 477 442 l 260 442 z m 260 865 l 260 583 l 467 583 q 555 600 518 583 q 612 649 592 617 q 631 724 631 680 l 631 724 q 588 827 631 789 q 467 865 544 865 l 467 865 l 260 865 z "},"C":{"ha":1006,"x_min":49,"x_max":960,"o":"m 525 -16 l 525 -16 q 278 48 386 -16 q 110 230 171 113 q 49 505 49 347 l 49 505 q 110 781 49 663 q 278 962 170 898 q 525 1027 386 1027 l 525 1027 q 684 1001 610 1027 q 815 928 758 976 q 910 814 873 880 q 960 664 947 747 l 960 664 l 778 664 q 745 750 768 712 q 690 813 723 787 q 616 853 658 840 q 526 866 575 866 l 526 866 q 368 821 434 866 q 265 695 301 776 q 229 505 229 614 l 229 505 q 265 315 229 396 q 367 190 300 235 q 526 144 434 144 l 526 144 q 616 158 575 144 q 690 197 657 171 q 745 260 722 222 q 779 345 768 297 l 779 345 l 960 345 q 910 196 947 262 q 815 82 873 130 q 684 9 758 35 q 525 -16 610 -16 z "},"D":{"ha":968,"x_min":84,"x_max":920,"o":"m 425 0 l 425 0 l 170 0 l 170 153 l 416 153 q 597 195 525 153 q 704 315 669 236 q 739 507 739 394 l 739 507 q 704 696 739 618 q 598 816 669 774 q 421 857 528 857 l 421 857 l 165 857 l 165 1010 l 433 1010 q 692 949 583 1010 q 861 775 802 888 q 920 507 920 662 l 920 507 q 860 236 920 350 q 691 61 801 123 q 425 0 581 0 z m 84 1010 l 263 1010 l 263 0 l 84 0 l 84 1010 z "},"E":{"ha":831,"x_min":84,"x_max":786,"o":"m 786 0 l 84 0 l 84 1010 l 786 1010 l 786 855 l 263 855 l 263 589 l 747 589 l 747 437 l 263 437 l 263 155 l 786 155 l 786 0 z "},"F":{"ha":795,"x_min":84,"x_max":764,"o":"m 263 0 l 84 0 l 84 1010 l 764 1010 l 764 855 l 263 855 l 263 579 l 728 579 l 728 427 l 263 427 l 263 0 z "},"G":{"ha":1019,"x_min":49,"x_max":964,"o":"m 523 -16 l 523 -16 q 276 50 383 -16 q 109 233 170 115 q 49 505 49 350 l 49 505 q 110 781 49 663 q 279 962 172 898 q 521 1027 386 1027 l 521 1027 q 681 1001 606 1027 q 813 929 755 976 q 909 818 871 882 q 958 675 947 754 l 958 675 l 775 675 q 744 754 766 719 q 690 814 722 789 q 616 852 657 839 q 526 866 574 866 l 526 866 q 368 821 435 866 q 266 695 302 777 q 229 505 229 614 l 229 505 q 266 315 229 395 q 369 189 302 234 q 527 144 436 144 l 527 144 q 661 175 602 144 q 754 261 720 206 q 788 388 788 315 l 788 388 l 834 385 l 553 385 l 553 526 l 964 526 l 964 404 q 907 186 964 281 q 750 38 850 92 q 523 -16 651 -16 z "},"H":{"ha":993,"x_min":84,"x_max":909,"o":"m 263 0 l 84 0 l 84 1010 l 263 1010 l 263 593 l 729 593 l 729 1010 l 909 1010 l 909 0 l 729 0 l 729 438 l 263 438 l 263 0 z "},"I":{"ha":347,"x_min":84,"x_max":263,"o":"m 84 1010 l 263 1010 l 263 0 l 84 0 l 84 1010 z "},"J":{"ha":768,"x_min":43,"x_max":688,"o":"m 363 -14 l 363 -14 q 130 67 217 -14 q 43 300 43 149 l 43 300 l 43 363 l 216 363 l 216 299 q 255 180 216 221 q 361 139 294 139 l 361 139 q 468 180 429 139 q 508 299 508 221 l 508 299 l 508 1010 l 688 1010 l 688 297 q 600 66 688 146 q 363 -14 512 -14 z "},"K":{"ha":928,"x_min":84,"x_max":918,"o":"m 469 529 l 212 237 l 212 463 q 281 544 246 504 q 351 625 316 585 q 421 706 387 665 l 421 706 l 690 1010 l 911 1010 l 482 529 l 469 529 z m 263 0 l 84 0 l 84 1010 l 263 1010 l 263 707 l 263 465 l 263 379 l 263 0 z m 918 0 l 709 0 l 384 478 l 492 616 l 918 0 z "},"L":{"ha":764,"x_min":84,"x_max":732,"o":"m 732 0 l 84 0 l 84 1010 l 263 1010 l 263 155 l 732 155 l 732 0 z "},"M":{"ha":1225,"x_min":84,"x_max":1141,"o":"m 260 0 l 84 0 l 84 1010 l 342 1010 l 538 479 q 562 409 549 450 q 589 322 575 368 q 616 236 604 277 q 636 168 629 195 l 636 168 l 592 168 q 612 236 600 195 q 638 322 624 277 q 666 409 652 368 q 688 479 679 450 l 688 479 l 882 1010 l 1141 1010 l 1141 0 l 964 0 l 964 515 q 965 592 964 549 q 967 685 966 636 q 970 783 969 733 q 972 878 971 833 l 972 878 l 994 878 q 962 774 978 827 q 930 673 945 722 q 901 584 914 625 q 878 515 888 544 l 878 515 l 686 0 l 539 0 l 345 515 q 322 584 336 544 q 292 673 308 625 q 260 774 277 722 q 226 878 243 827 l 226 878 l 253 878 q 255 783 254 833 q 258 685 256 733 q 260 592 259 636 q 260 515 260 549 l 260 515 l 260 0 z "},"N":{"ha":1000,"x_min":84,"x_max":916,"o":"m 263 0 l 84 0 l 84 1010 l 277 1010 l 632 447 q 669 386 647 424 q 716 303 691 348 q 764 218 741 259 l 764 218 l 744 174 q 740 273 742 217 q 738 380 739 329 q 736 460 736 432 l 736 460 l 736 1010 l 916 1010 l 916 0 l 722 0 l 402 507 q 359 579 386 534 q 297 684 332 625 q 225 809 263 743 l 225 809 l 254 836 q 260 696 258 760 q 263 583 262 631 q 263 508 263 535 l 263 508 l 263 0 z "},"O":{"ha":1039,"x_min":49,"x_max":990,"o":"m 519 -16 l 519 -16 q 278 48 385 -16 q 110 230 171 113 q 49 505 49 347 l 49 505 q 110 781 49 663 q 278 962 171 898 q 519 1027 385 1027 l 519 1027 q 761 962 655 1027 q 929 781 867 898 q 990 505 990 663 l 990 505 q 929 230 990 347 q 761 48 867 113 q 519 -16 655 -16 z m 519 144 l 519 144 q 668 186 602 144 q 771 309 733 229 q 809 505 809 389 l 809 505 q 771 701 809 621 q 668 824 733 782 q 519 866 602 866 l 519 866 q 372 824 437 866 q 268 701 306 782 q 229 505 229 621 l 229 505 q 268 309 229 389 q 372 186 306 229 q 519 144 437 144 z "},"P":{"ha":868,"x_min":84,"x_max":831,"o":"m 263 0 l 84 0 l 84 1010 l 470 1010 q 662 971 581 1010 q 787 859 743 932 q 831 688 831 787 l 831 688 q 786 515 831 588 q 660 403 741 443 q 467 363 578 363 l 467 363 l 181 363 l 181 517 l 460 517 q 564 537 520 517 q 631 596 608 558 q 654 688 654 635 l 654 688 q 631 778 654 741 q 564 837 608 816 q 460 857 520 857 l 460 857 l 263 857 l 263 0 z "},"Q":{"ha":1039,"x_min":49,"x_max":990,"o":"m 610 123 l 448 337 l 610 337 l 711 208 l 776 130 l 946 -87 l 774 -87 l 663 57 l 610 123 z m 519 -16 l 519 -16 q 278 48 385 -16 q 110 230 171 113 q 49 505 49 347 l 49 505 q 110 781 49 663 q 278 962 171 898 q 519 1027 385 1027 l 519 1027 q 761 962 655 1027 q 929 781 867 898 q 990 505 990 663 l 990 505 q 929 230 990 347 q 761 48 867 113 q 519 -16 655 -16 z m 519 144 l 519 144 q 668 186 602 144 q 771 309 733 229 q 809 505 809 389 l 809 505 q 771 701 809 621 q 668 824 733 782 q 519 866 602 866 l 519 866 q 372 824 437 866 q 268 701 306 782 q 229 505 229 621 l 229 505 q 268 309 229 389 q 372 186 306 229 q 519 144 437 144 z "},"R":{"ha":895,"x_min":84,"x_max":859,"o":"m 263 0 l 84 0 l 84 1010 l 478 1010 q 670 971 589 1010 q 795 859 751 932 q 840 688 840 787 l 840 688 q 793 517 840 589 q 663 407 747 446 q 467 368 579 368 l 467 368 l 190 368 l 190 515 l 469 515 q 572 536 529 515 q 640 596 616 557 q 663 688 663 635 l 663 688 q 640 779 663 741 q 572 838 616 817 q 468 859 529 859 l 468 859 l 263 859 l 263 0 z m 859 0 l 661 0 l 426 456 l 618 456 l 859 0 z "},"S":{"ha":888,"x_min":50,"x_max":839,"o":"m 450 -16 l 450 -16 q 235 25 325 -16 q 98 144 146 66 q 50 330 50 221 l 50 330 l 225 330 q 253 225 226 269 q 331 158 280 181 q 451 135 381 135 l 451 135 q 561 153 514 135 q 634 204 608 171 q 661 281 661 237 l 661 281 q 642 343 661 317 q 582 389 623 370 q 473 425 541 409 l 473 425 l 364 449 q 141 551 213 484 q 69 726 69 619 l 69 726 q 116 884 69 817 q 246 989 162 951 q 441 1027 330 1027 l 441 1027 q 636 988 554 1027 q 765 877 719 949 q 813 704 810 804 l 813 704 l 643 704 q 583 829 637 784 q 440 875 529 875 l 440 875 q 341 857 385 875 q 273 807 298 839 q 249 734 249 776 l 249 734 q 268 676 249 701 q 327 632 286 651 q 433 598 367 613 l 433 598 l 535 574 q 671 531 614 557 q 766 471 728 506 q 821 392 803 437 q 839 292 839 347 l 839 292 q 791 128 839 197 q 656 21 744 59 q 450 -16 569 -16 z "},"T":{"ha":871,"x_min":31,"x_max":839,"o":"m 346 855 l 31 855 l 31 1010 l 839 1010 l 839 855 l 526 855 l 526 0 l 346 0 l 346 855 z "},"U":{"ha":977,"x_min":80,"x_max":897,"o":"m 489 -16 l 489 -16 q 274 31 366 -16 q 131 160 182 77 q 80 349 80 242 l 80 349 l 80 1010 l 257 1010 l 257 363 q 286 249 257 299 q 366 171 314 199 q 489 142 418 142 l 489 142 q 612 171 560 142 q 692 249 664 199 q 720 363 720 299 l 720 363 l 720 1010 l 897 1010 l 897 349 q 847 159 897 241 q 704 30 796 77 q 489 -16 612 -16 z "},"V":{"ha":956,"x_min":9,"x_max":947,"o":"m 593 0 l 370 0 l 9 1010 l 203 1010 l 385 479 q 440 303 410 402 q 509 77 471 203 l 509 77 l 458 77 q 525 303 495 203 q 578 479 555 402 l 578 479 l 755 1010 l 947 1010 l 593 0 z "},"W":{"ha":1362,"x_min":9,"x_max":1354,"o":"m 485 0 l 281 0 l 9 1010 l 198 1010 l 332 466 q 358 350 346 408 q 382 234 370 292 q 404 118 393 176 l 404 118 l 372 118 q 395 234 383 176 q 420 350 407 292 q 448 466 433 408 l 448 466 l 587 1010 l 776 1010 l 913 466 q 942 350 928 408 q 967 234 955 292 q 991 118 979 176 l 991 118 l 957 118 q 979 234 968 176 q 1004 350 991 292 q 1030 466 1017 408 l 1030 466 l 1164 1010 l 1354 1010 l 1080 0 l 878 0 l 723 585 q 691 719 707 648 q 658 876 676 791 l 658 876 l 704 876 q 671 719 686 791 q 639 585 656 648 l 639 585 l 485 0 z "},"X":{"ha":945,"x_min":11,"x_max":934,"o":"m 214 0 l 11 0 l 419 583 l 419 449 l 39 1010 l 244 1010 l 369 823 q 412 757 391 790 q 454 691 433 724 q 495 625 475 658 l 495 625 l 452 625 q 495 691 474 658 q 538 757 516 724 q 581 823 559 790 l 581 823 l 708 1010 l 907 1010 l 532 458 l 532 586 l 934 0 l 726 0 l 571 229 q 533 287 552 258 q 495 345 513 316 q 457 403 476 374 l 457 403 l 488 403 q 450 345 469 374 q 411 287 431 316 q 372 229 392 258 l 372 229 l 214 0 z "},"Y":{"ha":937,"x_min":9,"x_max":928,"o":"m 558 0 l 382 0 l 382 391 l 9 1010 l 215 1010 l 397 699 q 447 611 423 655 q 496 524 471 568 l 496 524 l 448 524 q 495 611 471 568 q 544 699 519 655 l 544 699 l 722 1010 l 928 1010 l 558 391 l 558 0 z "},"Z":{"ha":871,"x_min":37,"x_max":834,"o":"m 834 0 l 37 0 l 37 142 l 511 734 q 588 825 549 780 q 667 917 627 871 l 667 917 l 688 855 q 565 855 627 855 q 441 855 503 855 l 441 855 l 55 855 l 55 1010 l 829 1010 l 829 868 l 364 285 q 285 189 326 237 q 203 94 245 142 l 203 94 l 181 155 q 303 155 242 155 q 425 155 364 155 l 425 155 l 834 155 l 834 0 z "},"a":{"ha":751,"x_min":47,"x_max":676,"o":"m 294 -12 l 294 -12 q 167 12 223 -12 q 79 84 111 36 q 47 203 47 132 l 47 203 q 70 304 47 264 q 132 368 93 344 q 222 404 172 391 q 328 422 273 416 l 328 422 q 434 435 395 429 q 490 452 473 441 q 507 488 507 463 l 507 488 l 507 493 q 491 548 507 524 q 446 584 475 571 q 376 597 416 597 l 376 597 q 303 584 334 597 q 253 548 271 571 q 232 494 235 524 l 232 494 l 67 494 q 110 618 72 565 q 217 701 149 671 q 379 730 286 730 l 379 730 q 504 714 449 730 q 598 665 559 697 q 656 589 636 633 q 676 488 676 544 l 676 488 l 676 0 l 508 0 l 508 101 l 505 101 q 461 44 488 69 q 393 3 434 18 q 294 -12 353 -12 z m 336 115 l 336 115 q 431 136 393 115 q 488 190 469 156 q 507 265 507 224 l 507 265 l 507 342 q 484 333 499 338 q 447 324 468 328 q 400 315 425 319 q 349 307 376 311 l 349 307 q 282 291 313 302 q 232 258 251 279 q 214 205 214 237 l 214 205 q 229 157 214 177 q 272 126 244 136 q 336 115 299 115 z "},"b":{"ha":815,"x_min":76,"x_max":772,"o":"m 463 -14 l 463 -14 q 375 -1 416 -14 q 301 40 334 13 q 245 109 268 68 l 245 109 l 244 109 l 244 0 l 76 0 l 76 1010 l 247 1010 l 247 614 l 248 614 q 304 680 271 654 q 377 718 336 705 q 463 730 417 730 l 463 730 q 626 684 556 730 q 734 553 695 637 q 772 359 772 469 l 772 359 q 734 163 772 248 q 626 33 696 79 q 463 -14 556 -14 z m 422 129 l 422 129 q 515 155 475 129 q 577 233 555 182 q 600 359 600 285 l 600 359 q 577 484 600 433 q 515 562 555 535 q 422 589 475 589 l 422 589 q 325 560 366 589 q 260 480 283 532 q 237 359 237 429 l 237 359 q 260 237 237 289 q 325 157 283 185 q 422 129 366 129 z "},"c":{"ha":756,"x_min":43,"x_max":718,"o":"m 393 -16 l 393 -16 q 209 31 288 -16 q 86 163 130 79 q 43 357 43 247 l 43 357 q 86 552 43 468 q 209 685 130 637 q 393 732 288 732 l 393 732 q 517 712 460 732 q 617 656 574 692 q 686 569 660 619 q 718 460 712 519 l 718 460 l 550 460 q 533 513 545 489 q 501 554 521 536 q 454 581 481 571 q 395 590 428 590 l 395 590 q 299 562 339 590 q 237 481 258 533 q 216 357 216 429 l 216 357 q 237 235 216 287 q 298 155 258 183 q 395 126 338 126 l 395 126 q 454 135 428 126 q 499 162 480 144 q 530 203 518 179 q 549 257 543 228 l 549 257 l 718 257 q 687 148 713 198 q 618 61 662 98 q 518 4 575 24 q 393 -16 460 -16 z "},"d":{"ha":815,"x_min":43,"x_max":739,"o":"m 353 -14 l 353 -14 q 190 33 260 -14 q 81 163 119 79 q 43 359 43 248 l 43 359 q 81 553 43 469 q 190 684 120 637 q 351 730 260 730 l 351 730 q 438 718 398 730 q 511 680 479 705 q 567 614 544 654 l 567 614 l 568 614 l 568 1010 l 739 1010 l 739 0 l 571 0 l 571 109 l 570 109 q 514 40 547 68 q 440 -1 481 13 q 353 -14 399 -14 z m 393 129 l 393 129 q 490 157 449 129 q 555 237 532 185 q 578 359 578 289 l 578 359 q 555 480 578 429 q 490 560 532 532 q 393 589 449 589 l 393 589 q 300 562 340 589 q 238 484 260 535 q 216 359 216 433 l 216 359 q 238 233 216 285 q 300 155 260 182 q 393 129 340 129 z "},"e":{"ha":768,"x_min":43,"x_max":728,"o":"m 392 -16 l 392 -16 q 206 32 285 -16 q 85 164 127 80 q 43 357 43 249 l 43 357 q 86 551 43 467 q 208 684 130 636 q 385 732 285 732 l 385 732 q 526 705 463 732 q 634 628 589 678 q 704 510 680 578 q 728 360 728 442 l 728 360 l 728 313 l 111 313 l 111 431 l 643 431 l 566 399 q 544 505 566 460 q 483 573 522 549 q 388 597 443 597 l 388 597 q 294 573 334 597 q 232 505 254 549 q 210 399 210 460 l 210 399 l 210 326 q 232 217 210 264 q 295 144 254 170 q 396 119 337 119 l 396 119 q 472 132 439 119 q 528 168 505 144 q 559 221 550 191 l 559 221 l 720 221 q 660 98 706 151 q 545 14 614 44 q 392 -16 476 -16 z "},"f":{"ha":485,"x_min":12,"x_max":458,"o":"m 12 716 l 458 716 l 458 578 l 12 578 l 12 716 z m 312 0 l 140 0 l 140 821 q 165 925 140 882 q 239 989 191 967 q 358 1010 288 1010 l 358 1010 q 419 1010 390 1010 q 458 1010 448 1010 l 458 1010 l 458 873 q 428 873 450 873 q 392 873 406 873 l 392 873 q 330 854 349 873 q 312 792 312 836 l 312 792 l 312 0 z "},"g":{"ha":815,"x_min":43,"x_max":739,"o":"m 401 -293 l 401 -293 q 238 -266 307 -293 q 128 -187 169 -238 q 78 -66 87 -136 l 78 -66 l 245 -66 q 275 -118 254 -97 q 329 -150 297 -139 q 401 -161 361 -161 l 401 -161 q 525 -117 481 -161 q 570 8 570 -74 l 570 8 l 570 117 l 569 117 q 513 48 546 75 q 440 8 481 21 q 353 -5 400 -5 l 353 -5 q 190 42 260 -5 q 81 172 119 89 q 43 361 43 254 l 43 361 q 81 554 43 471 q 190 684 120 637 q 351 730 260 730 l 351 730 q 439 718 398 730 q 513 678 479 705 q 570 610 547 651 l 570 610 l 570 610 l 570 716 l 739 716 l 739 18 q 695 -161 739 -92 q 574 -261 651 -229 q 401 -293 498 -293 z m 393 136 l 393 136 q 490 164 449 136 q 555 244 532 193 q 578 363 578 295 l 578 363 q 555 484 578 433 q 490 563 532 534 q 393 591 449 591 l 393 591 q 300 564 340 591 q 238 487 260 538 q 216 363 216 437 l 216 363 q 238 240 216 291 q 300 163 260 189 q 393 136 340 136 z "},"h":{"ha":795,"x_min":76,"x_max":720,"o":"m 247 405 l 247 405 l 247 0 l 76 0 l 76 1010 l 247 1010 l 247 534 l 211 534 q 308 680 245 630 q 464 730 371 730 l 464 730 q 597 698 539 730 q 687 603 654 666 q 720 448 720 540 l 720 448 l 720 0 l 548 0 l 548 420 q 510 540 548 499 q 404 581 473 581 l 404 581 q 323 562 359 581 q 268 505 288 544 q 247 405 247 467 z "},"i":{"ha":323,"x_min":59,"x_max":263,"o":"m 247 0 l 76 0 l 76 716 l 247 716 l 247 0 z m 161 823 l 161 823 q 88 851 117 823 q 59 920 59 879 l 59 920 q 88 989 59 962 q 161 1017 117 1017 l 161 1017 q 234 989 205 1017 q 263 920 263 962 l 263 920 q 234 850 263 878 q 161 823 205 823 z "},"j":{"ha":323,"x_min":-45,"x_max":264,"o":"m 76 -53 l 76 716 l 248 716 l 248 -73 q 222 -185 248 -138 q 147 -258 197 -232 q 24 -283 98 -283 l 24 -283 l -45 -283 l -45 -144 l -2 -144 q 58 -123 39 -144 q 76 -53 76 -101 l 76 -53 z m 162 823 l 162 823 q 89 851 118 823 q 60 920 60 879 l 60 920 q 89 989 60 962 q 161 1017 118 1017 l 161 1017 q 235 989 205 1017 q 264 920 264 962 l 264 920 q 235 850 264 878 q 162 823 205 823 z "},"k":{"ha":745,"x_min":76,"x_max":751,"o":"m 367 363 l 232 224 l 232 426 l 249 426 l 528 716 l 733 716 l 401 363 l 367 363 z m 247 0 l 76 0 l 76 1010 l 247 1010 l 247 0 z m 751 0 l 547 0 l 298 325 l 414 444 l 751 0 z "},"l":{"ha":323,"x_min":76,"x_max":247,"o":"m 76 1010 l 247 1010 l 247 0 l 76 0 l 76 1010 z "},"m":{"ha":1206,"x_min":76,"x_max":1131,"o":"m 247 0 l 76 0 l 76 716 l 241 716 l 241 560 l 229 560 q 282 655 248 617 q 362 712 317 693 q 457 730 407 730 l 457 730 q 600 683 540 730 q 673 560 659 636 l 673 560 l 650 560 q 699 649 665 611 q 783 709 733 688 q 891 730 832 730 l 891 730 q 1013 701 959 730 q 1099 614 1067 672 q 1131 473 1131 557 l 1131 473 l 1131 0 l 960 0 l 960 448 q 921 552 960 519 q 827 585 882 585 l 827 585 q 752 567 784 585 q 704 515 721 548 q 686 439 686 483 l 686 439 l 686 0 l 520 0 l 520 456 q 484 550 520 515 q 390 585 447 585 l 390 585 q 319 567 352 585 q 267 514 286 549 q 247 427 247 479 l 247 427 l 247 0 z "},"n":{"ha":795,"x_min":76,"x_max":720,"o":"m 247 405 l 247 405 l 247 0 l 76 0 l 76 716 l 244 716 l 244 534 l 211 534 q 308 680 245 630 q 464 730 371 730 l 464 730 q 597 698 539 730 q 687 603 654 666 q 720 448 720 540 l 720 448 l 720 0 l 548 0 l 548 420 q 510 540 548 499 q 404 581 473 581 l 404 581 q 323 562 359 581 q 268 505 288 544 q 247 405 247 467 z "},"o":{"ha":791,"x_min":43,"x_max":749,"o":"m 396 -16 l 396 -16 q 211 31 291 -16 q 87 162 132 78 q 43 357 43 246 l 43 357 q 87 553 43 469 q 211 685 132 637 q 396 732 291 732 l 396 732 q 581 685 502 732 q 705 553 661 637 q 749 357 749 469 l 749 357 q 705 162 749 246 q 581 31 661 78 q 396 -16 502 -16 z m 396 127 l 396 127 q 491 155 451 127 q 554 234 532 182 q 576 357 576 286 l 576 357 q 554 481 576 429 q 491 561 532 533 q 396 589 451 589 l 396 589 q 300 561 341 589 q 238 481 260 533 q 216 357 216 429 l 216 357 q 238 234 216 286 q 300 155 260 182 q 396 127 341 127 z "},"p":{"ha":815,"x_min":76,"x_max":772,"o":"m 247 -283 l 76 -283 l 76 716 l 244 716 l 244 616 l 246 616 q 302 680 269 654 q 376 718 335 705 q 463 730 417 730 l 463 730 q 626 684 556 730 q 734 553 695 637 q 772 359 772 469 l 772 359 q 734 163 772 248 q 626 33 696 79 q 463 -14 556 -14 l 463 -14 q 376 -1 416 -14 q 303 40 336 13 q 249 108 271 67 l 249 108 l 247 108 l 247 -283 z m 422 129 l 422 129 q 515 155 475 129 q 577 233 555 182 q 600 359 600 285 l 600 359 q 577 484 600 433 q 515 562 555 535 q 422 589 475 589 l 422 589 q 325 560 366 589 q 260 480 283 532 q 237 359 237 429 l 237 359 q 260 237 237 289 q 325 157 283 185 q 422 129 366 129 z "},"q":{"ha":815,"x_min":43,"x_max":739,"o":"m 739 716 l 739 -283 l 568 -283 l 568 108 l 566 108 q 512 40 544 67 q 439 -1 479 13 q 353 -14 399 -14 l 353 -14 q 190 33 260 -14 q 81 163 119 79 q 43 359 43 248 l 43 359 q 81 553 43 469 q 190 684 120 637 q 351 730 260 730 l 351 730 q 439 718 398 730 q 513 680 480 705 q 568 616 547 654 l 568 616 l 571 616 l 571 716 l 739 716 z m 393 129 l 393 129 q 490 157 449 129 q 555 237 532 185 q 578 359 578 289 l 578 359 q 555 480 578 429 q 490 560 532 532 q 393 589 449 589 l 393 589 q 300 562 340 589 q 238 484 260 535 q 216 359 216 433 l 216 359 q 238 233 216 285 q 300 155 260 182 q 393 129 340 129 z "},"r":{"ha":494,"x_min":76,"x_max":472,"o":"m 247 0 l 76 0 l 76 716 l 241 716 l 241 597 l 243 597 q 305 691 262 659 q 416 723 347 723 l 416 723 q 448 722 434 723 q 472 720 462 722 l 472 720 l 472 568 q 440 572 463 570 q 391 574 417 574 l 391 574 q 318 555 351 574 q 266 499 286 536 q 247 406 247 462 l 247 406 l 247 0 z "},"s":{"ha":701,"x_min":42,"x_max":661,"o":"m 357 -17 l 357 -17 q 201 11 270 -17 q 90 91 132 38 q 42 221 47 144 l 42 221 l 211 221 q 253 140 216 169 q 354 111 290 111 l 354 111 q 451 136 416 111 q 487 198 487 160 l 487 198 q 461 250 487 231 q 389 279 435 270 l 389 279 l 267 304 q 111 378 164 326 q 58 511 58 431 l 58 511 q 94 627 58 577 q 194 704 130 676 q 347 732 259 732 l 347 732 q 499 703 433 732 q 603 620 566 673 q 643 493 641 567 l 643 493 l 482 493 q 445 572 481 541 q 351 604 409 604 l 351 604 q 262 578 294 604 q 229 517 229 553 l 229 517 q 254 465 229 485 q 324 435 279 445 l 324 435 l 453 408 q 610 338 559 386 q 661 211 661 290 l 661 211 q 622 90 661 141 q 514 11 583 39 q 357 -17 446 -17 z "},"t":{"ha":486,"x_min":12,"x_max":454,"o":"m 12 716 l 454 716 l 454 578 l 12 578 l 12 716 z m 136 180 l 136 911 l 308 911 l 308 205 q 323 153 308 168 q 380 138 339 138 l 380 138 q 419 138 397 138 q 454 138 441 138 l 454 138 l 454 0 q 407 0 436 0 q 351 0 378 0 l 351 0 q 189 44 241 0 q 136 180 136 89 l 136 180 z "},"u":{"ha":795,"x_min":76,"x_max":720,"o":"m 331 -14 l 331 -14 q 199 18 256 -14 q 109 114 141 50 q 76 269 76 177 l 76 269 l 76 716 l 247 716 l 247 296 q 285 176 247 217 q 391 136 323 136 l 391 136 q 472 154 437 136 q 528 211 507 172 q 548 311 548 250 l 548 311 l 548 716 l 720 716 l 720 0 l 551 0 l 551 182 l 585 182 q 487 36 550 87 q 331 -14 425 -14 z "},"v":{"ha":750,"x_min":12,"x_max":738,"o":"m 469 0 l 281 0 l 12 716 l 193 716 l 324 343 q 362 224 344 283 q 398 106 380 165 l 398 106 l 357 106 q 393 224 375 165 q 430 343 411 283 l 430 343 l 559 716 l 738 716 l 469 0 z "},"w":{"ha":1106,"x_min":12,"x_max":1094,"o":"m 410 0 l 233 0 l 12 716 l 192 716 l 266 444 q 304 289 286 369 q 341 131 323 208 l 341 131 l 318 131 q 357 289 338 208 q 398 444 377 369 l 398 444 l 474 716 l 632 716 l 707 444 q 747 289 728 369 q 787 131 767 208 l 787 131 l 762 131 q 800 289 781 208 q 838 444 819 369 l 838 444 l 912 716 l 1094 716 l 872 0 l 694 0 l 608 298 q 583 388 595 342 q 559 480 571 434 q 536 572 548 526 l 536 572 l 571 572 q 547 480 559 526 q 523 388 534 434 q 498 298 511 342 l 498 298 l 410 0 z "},"x":{"ha":732,"x_min":12,"x_max":720,"o":"m 203 0 l 12 0 l 304 411 l 302 322 l 29 716 l 220 716 l 294 602 q 348 515 322 557 q 399 431 374 473 l 399 431 l 338 431 q 390 515 364 473 q 444 602 416 557 l 444 602 l 520 716 l 708 716 l 431 322 l 433 411 l 720 0 l 528 0 l 443 127 q 390 212 416 171 q 339 294 365 252 l 339 294 l 395 294 q 343 212 369 252 q 290 127 318 171 l 290 127 l 203 0 z "},"y":{"ha":750,"x_min":12,"x_max":738,"o":"m 89 -283 l 89 -283 l 89 -144 l 174 -144 q 213 -136 197 -144 q 240 -111 229 -128 q 262 -65 252 -93 l 262 -65 l 288 4 l 12 716 l 193 716 l 325 343 q 364 224 345 283 q 400 106 382 165 l 400 106 l 353 106 q 389 224 370 165 q 428 343 408 284 l 428 343 l 559 716 l 738 716 l 418 -118 q 366 -211 396 -174 q 294 -266 335 -248 q 201 -283 253 -283 l 201 -283 q 145 -283 174 -283 q 89 -283 117 -283 z "},"z":{"ha":705,"x_min":64,"x_max":641,"o":"m 641 0 l 64 0 l 64 119 l 432 574 l 432 576 l 64 576 l 64 716 l 637 716 l 637 591 l 275 142 l 275 140 l 641 140 l 641 0 z "},"&":{"ha":881,"x_min":43,"x_max":888,"o":"m 374 -14 l 374 -14 q 199 22 274 -14 q 84 123 125 59 q 43 269 43 186 l 43 269 q 62 365 43 321 q 125 450 81 408 q 240 543 169 492 l 240 543 l 425 671 q 466 708 450 689 q 490 747 482 727 q 498 785 498 766 l 498 785 q 469 852 498 824 q 391 880 439 880 l 391 880 q 335 867 360 880 q 296 829 311 854 q 282 772 282 805 l 282 772 q 295 715 282 744 q 338 649 309 686 q 414 556 368 612 l 414 556 l 888 0 l 699 0 l 307 452 q 207 576 246 523 q 147 676 167 629 q 127 776 127 723 l 127 776 q 160 903 127 848 q 253 990 193 959 q 391 1022 313 1022 l 391 1022 q 526 992 469 1022 q 615 911 583 962 q 647 794 647 859 l 647 794 q 632 711 647 751 q 587 634 616 671 q 513 565 557 598 l 513 565 l 308 416 q 237 348 260 380 q 213 275 213 315 l 213 275 q 235 200 213 234 q 296 147 258 167 q 382 127 334 127 l 382 127 q 491 155 438 127 q 586 230 544 182 q 653 340 628 277 q 677 473 677 402 l 677 473 l 827 473 q 812 333 827 399 q 764 212 796 267 q 684 114 732 156 l 684 114 l 642 82 q 520 11 591 36 q 374 -14 449 -14 z "},"!":{"ha":330,"x_min":60,"x_max":270,"o":"m 242 289 l 88 289 l 73 1010 l 257 1010 l 242 289 z m 165 -12 l 165 -12 q 91 19 121 -12 q 60 93 60 50 l 60 93 q 91 168 60 137 q 165 198 121 198 l 165 198 q 239 168 209 198 q 270 93 270 137 l 270 93 q 239 19 270 50 q 165 -12 209 -12 z "},"?":{"ha":768,"x_min":43,"x_max":709,"o":"m 444 289 l 284 289 l 284 351 q 302 462 284 422 q 356 531 321 503 q 441 591 391 559 l 441 591 q 518 665 495 626 q 541 745 541 704 l 541 745 q 521 817 541 787 q 467 864 502 848 q 382 881 431 881 l 382 881 q 291 860 330 881 q 232 799 252 838 q 212 704 212 760 l 212 704 l 43 704 q 86 872 43 800 q 205 985 129 944 q 384 1026 282 1026 l 384 1026 q 553 991 480 1026 q 668 897 627 957 q 709 758 709 836 l 709 758 q 674 620 709 682 q 570 511 639 558 l 570 511 q 499 459 527 482 q 457 408 471 435 q 444 339 444 381 l 444 339 l 444 289 z m 366 -12 l 366 -12 q 291 19 321 -12 q 260 93 260 50 l 260 93 q 291 168 260 137 q 366 198 321 198 l 366 198 q 439 168 409 198 q 470 93 470 137 l 470 93 q 439 19 470 50 q 366 -12 409 -12 z "},"(":{"ha":446,"x_min":87,"x_max":413,"o":"m 87 401 l 87 401 q 108 642 87 519 q 164 874 128 765 q 248 1062 201 984 l 248 1062 l 413 1062 q 333 853 368 965 q 280 625 299 741 q 261 401 261 509 l 261 401 q 278 210 261 305 q 329 15 295 115 q 413 -199 362 -86 l 413 -199 l 248 -199 q 129 87 170 -66 q 87 401 87 241 z "},")":{"ha":446,"x_min":32,"x_max":357,"o":"m 197 -199 l 32 -199 q 117 15 83 -86 q 168 210 151 115 q 184 401 184 305 l 184 401 q 165 625 184 509 q 112 853 146 741 q 32 1062 78 965 l 32 1062 l 197 1062 q 281 874 245 984 q 337 642 317 765 q 357 401 357 519 l 357 401 q 317 87 357 241 q 197 -199 276 -66 l 197 -199 z "},"-":{"ha":610,"x_min":79,"x_max":532,"o":"m 79 475 l 532 475 l 532 331 l 79 331 l 79 475 z "},"–":{"ha":694,"x_min":0,"x_max":694,"o":"m 0 475 l 694 475 l 694 331 l 0 331 l 0 475 z "},"—":{"ha":1389,"x_min":0,"x_max":1389,"o":"m 0 475 l 1389 475 l 1389 331 l 0 331 l 0 475 z "},"’":{"ha":298,"x_min":50,"x_max":273,"o":"m 172 649 l 50 649 l 104 1010 l 273 1010 l 172 649 z "},"'":{"ha":369,"x_min":104,"x_max":264,"o":"m 247 642 l 122 642 l 104 1010 l 264 1010 l 247 642 z "},",":{"ha":328,"x_min":34,"x_max":256,"o":"m 155 -205 l 34 -205 l 87 157 l 256 157 l 155 -205 z "},".":{"ha":328,"x_min":59,"x_max":269,"o":"m 164 -12 l 164 -12 q 90 19 121 -12 q 59 93 59 50 l 59 93 q 90 168 59 137 q 164 198 121 198 l 164 198 q 239 168 208 198 q 269 93 269 137 l 269 93 q 239 19 269 50 q 164 -12 208 -12 z "},":":{"ha":328,"x_min":59,"x_max":269,"o":"m 164 -12 l 164 -12 q 90 19 121 -12 q 59 93 59 50 l 59 93 q 90 168 59 137 q 164 198 121 198 l 164 198 q 239 168 208 198 q 269 93 269 137 l 269 93 q 239 19 269 50 q 164 -12 208 -12 z m 164 481 l 164 481 q 90 512 121 481 q 59 586 59 543 l 59 586 q 90 661 59 630 q 164 691 121 691 l 164 691 q 239 661 208 691 q 269 586 269 630 l 269 586 q 239 512 269 543 q 164 481 208 481 z "},";":{"ha":332,"x_min":34,"x_max":273,"o":"m 155 -205 l 34 -205 l 87 157 l 256 157 l 155 -205 z m 168 481 l 168 481 q 93 512 124 481 q 62 586 62 543 l 62 586 q 93 661 62 630 q 168 691 124 691 l 168 691 q 242 661 212 691 q 273 586 273 630 l 273 586 q 242 512 273 543 q 168 481 212 481 z "}," ":{"ha":314,"x_min":0,"x_max":0,"o":""}}}
